<?xml version="1.0" encoding="UTF-8"?>
<svg width="512" height="512" viewBox="0 0 512 512" fill="none" xmlns="http://www.w3.org/2000/svg">
  <rect width="512" height="512" rx="256" fill="#00736D"/>
  <path d="M256 128C215.8 128 183.6 160.2 183.6 200.4C183.6 240.6 215.8 272.8 256 272.8C296.2 272.8 328.4 240.6 328.4 200.4C328.4 160.2 296.2 128 256 128Z" fill="white"/>
  <path d="M256 292.8C203.6 292.8 160 336.4 160 388.8V400H352V388.8C352 336.4 308.4 292.8 256 292.8Z" fill="white"/>
  <path d="M256 160C233.9 160 216 177.9 216 200C216 222.1 233.9 240 256 240C278.1 240 296 222.1 296 200C296 177.9 278.1 160 256 160ZM256 224C242.7 224 232 213.3 232 200C232 186.7 242.7 176 256 176C269.3 176 280 186.7 280 200C280 213.3 269.3 224 256 224Z" fill="#00736D"/>
  <path d="M256 256C229.5 256 204 267.2 185.4 285.8C166.8 304.4 156 329.5 156 356V384H356V356C356 329.5 345.2 304.4 326.6 285.8C308 267.2 282.5 256 256 256ZM340 368H172V356C172 334.6 180.5 314.1 195.8 298.8C211.1 283.5 231.6 276 252 276H260C280.4 276 300.9 283.5 316.2 298.8C331.5 314.1 340 334.6 340 356V368Z" fill="#00736D"/>
</svg>
